<mxfile host="Electron" agent="Mozilla/5.0 (Windows NT 10.0; Win64; x64) AppleWebKit/537.36 (KHTML, like Gecko) draw.io/26.2.15 Chrome/134.0.6998.205 Electron/35.2.1 Safari/537.36" version="26.2.15">
  <diagram name="Page-1" id="5OtOS8K4_Y_HtgKJYtr2">
    <mxGraphModel dx="1716" dy="1113" grid="1" gridSize="10" guides="1" tooltips="1" connect="1" arrows="1" fold="1" page="1" pageScale="1" pageWidth="1100" pageHeight="850" math="0" shadow="0">
      <root>
        <mxCell id="0" />
        <mxCell id="1" parent="0" />
        <mxCell id="tsniwYxbKprWZI0USiQ8-1" value="" style="group" vertex="1" connectable="0" parent="1">
          <mxGeometry x="52.5" width="120" height="80" as="geometry" />
        </mxCell>
        <mxCell id="tsniwYxbKprWZI0USiQ8-2" value="" style="ellipse;whiteSpace=wrap;html=1;fillColor=#60a917;fontColor=#ffffff;strokeColor=#2D7600;" vertex="1" parent="tsniwYxbKprWZI0USiQ8-1">
          <mxGeometry width="120" height="80" as="geometry" />
        </mxCell>
        <mxCell id="tsniwYxbKprWZI0USiQ8-3" value="&lt;font style=&quot;font-size: 28px;&quot;&gt;START&lt;/font&gt;" style="text;html=1;align=center;verticalAlign=middle;whiteSpace=wrap;rounded=0;" vertex="1" parent="tsniwYxbKprWZI0USiQ8-1">
          <mxGeometry x="30" y="25" width="60" height="30" as="geometry" />
        </mxCell>
        <mxCell id="tsniwYxbKprWZI0USiQ8-4" value="&lt;span style=&quot;font-size: 36px;&quot;&gt;ALICE_Button_Handler&lt;/span&gt;" style="text;html=1;align=center;verticalAlign=middle;whiteSpace=wrap;rounded=0;" vertex="1" parent="1">
          <mxGeometry x="870" y="25" width="60" height="30" as="geometry" />
        </mxCell>
        <mxCell id="tsniwYxbKprWZI0USiQ8-5" value="" style="group" vertex="1" connectable="0" parent="1">
          <mxGeometry y="120" width="225" height="75" as="geometry" />
        </mxCell>
        <mxCell id="tsniwYxbKprWZI0USiQ8-6" value="" style="rounded=1;whiteSpace=wrap;html=1;" vertex="1" parent="tsniwYxbKprWZI0USiQ8-5">
          <mxGeometry width="225" height="75" as="geometry" />
        </mxCell>
        <mxCell id="tsniwYxbKprWZI0USiQ8-7" value="&lt;font style=&quot;font-size: 24px;&quot;&gt;Clear the interrupt&lt;/font&gt;" style="text;html=1;align=center;verticalAlign=middle;whiteSpace=wrap;rounded=0;fillColor=#dae8fc;strokeColor=#6c8ebf;" vertex="1" parent="tsniwYxbKprWZI0USiQ8-5">
          <mxGeometry width="225" height="75" as="geometry" />
        </mxCell>
        <mxCell id="tsniwYxbKprWZI0USiQ8-11" value="" style="group" vertex="1" connectable="0" parent="1">
          <mxGeometry x="266" y="58" width="230" height="230" as="geometry" />
        </mxCell>
        <mxCell id="tsniwYxbKprWZI0USiQ8-12" value="" style="rhombus;whiteSpace=wrap;html=1;" vertex="1" parent="tsniwYxbKprWZI0USiQ8-11">
          <mxGeometry width="200" height="200" as="geometry" />
        </mxCell>
        <mxCell id="tsniwYxbKprWZI0USiQ8-13" value="&lt;span style=&quot;font-size: 24px;&quot;&gt;Is there a game in progress?&lt;/span&gt;" style="text;html=1;align=center;verticalAlign=middle;whiteSpace=wrap;rounded=0;" vertex="1" parent="tsniwYxbKprWZI0USiQ8-11">
          <mxGeometry x="30" y="70" width="140" height="60" as="geometry" />
        </mxCell>
        <mxCell id="tsniwYxbKprWZI0USiQ8-14" value="&lt;font style=&quot;font-size: 36px;&quot;&gt;YES&lt;/font&gt;" style="text;html=1;align=center;verticalAlign=middle;whiteSpace=wrap;rounded=0;" vertex="1" parent="tsniwYxbKprWZI0USiQ8-11">
          <mxGeometry x="194" y="40" width="60" height="30" as="geometry" />
        </mxCell>
        <mxCell id="tsniwYxbKprWZI0USiQ8-15" value="&lt;font style=&quot;font-size: 36px;&quot;&gt;NO&lt;/font&gt;" style="text;html=1;align=center;verticalAlign=middle;whiteSpace=wrap;rounded=0;" vertex="1" parent="tsniwYxbKprWZI0USiQ8-11">
          <mxGeometry y="170" width="60" height="30" as="geometry" />
        </mxCell>
        <mxCell id="tsniwYxbKprWZI0USiQ8-16" value="" style="group" vertex="1" connectable="0" parent="1">
          <mxGeometry x="520" y="-1.1368683772161603e-13" width="120" height="80" as="geometry" />
        </mxCell>
        <mxCell id="tsniwYxbKprWZI0USiQ8-17" value="" style="ellipse;whiteSpace=wrap;html=1;fillColor=#a20025;fontColor=#ffffff;strokeColor=#6F0000;" vertex="1" parent="tsniwYxbKprWZI0USiQ8-16">
          <mxGeometry width="120" height="80" as="geometry" />
        </mxCell>
        <mxCell id="tsniwYxbKprWZI0USiQ8-18" value="&lt;font style=&quot;font-size: 28px;&quot;&gt;STOP&lt;/font&gt;" style="text;html=1;align=center;verticalAlign=middle;whiteSpace=wrap;rounded=0;" vertex="1" parent="tsniwYxbKprWZI0USiQ8-16">
          <mxGeometry x="30" y="25" width="60" height="30" as="geometry" />
        </mxCell>
        <mxCell id="tsniwYxbKprWZI0USiQ8-22" value="" style="group" vertex="1" connectable="0" parent="1">
          <mxGeometry y="380" width="225" height="75" as="geometry" />
        </mxCell>
        <mxCell id="tsniwYxbKprWZI0USiQ8-23" value="" style="rounded=1;whiteSpace=wrap;html=1;" vertex="1" parent="tsniwYxbKprWZI0USiQ8-22">
          <mxGeometry width="225" height="75" as="geometry" />
        </mxCell>
        <mxCell id="tsniwYxbKprWZI0USiQ8-24" value="&lt;span style=&quot;font-size: 24px;&quot;&gt;Draw a new game board&lt;/span&gt;" style="text;html=1;align=center;verticalAlign=middle;whiteSpace=wrap;rounded=0;fillColor=#e1d5e7;strokeColor=#9673a6;" vertex="1" parent="tsniwYxbKprWZI0USiQ8-22">
          <mxGeometry width="225" height="75" as="geometry" />
        </mxCell>
        <mxCell id="tsniwYxbKprWZI0USiQ8-25" value="" style="group" vertex="1" connectable="0" parent="1">
          <mxGeometry y="620" width="225" height="75" as="geometry" />
        </mxCell>
        <mxCell id="tsniwYxbKprWZI0USiQ8-26" value="" style="rounded=1;whiteSpace=wrap;html=1;" vertex="1" parent="tsniwYxbKprWZI0USiQ8-25">
          <mxGeometry width="225" height="75" as="geometry" />
        </mxCell>
        <mxCell id="tsniwYxbKprWZI0USiQ8-27" value="&lt;font style=&quot;font-size: 24px;&quot;&gt;Initialize a new game:&lt;/font&gt;" style="text;html=1;align=center;verticalAlign=middle;whiteSpace=wrap;rounded=0;fillColor=#ffe6cc;strokeColor=#d79b00;" vertex="1" parent="tsniwYxbKprWZI0USiQ8-25">
          <mxGeometry width="225" height="75" as="geometry" />
        </mxCell>
        <mxCell id="tsniwYxbKprWZI0USiQ8-28" value="" style="group" vertex="1" connectable="0" parent="1">
          <mxGeometry y="740" width="225" height="75" as="geometry" />
        </mxCell>
        <mxCell id="tsniwYxbKprWZI0USiQ8-29" value="" style="rounded=1;whiteSpace=wrap;html=1;" vertex="1" parent="tsniwYxbKprWZI0USiQ8-28">
          <mxGeometry width="225" height="75" as="geometry" />
        </mxCell>
        <mxCell id="tsniwYxbKprWZI0USiQ8-30" value="&lt;font style=&quot;font-size: 24px;&quot;&gt;Set the following information in data:&lt;/font&gt;" style="text;html=1;align=center;verticalAlign=middle;whiteSpace=wrap;rounded=0;fillColor=#ffe6cc;strokeColor=#d79b00;" vertex="1" parent="tsniwYxbKprWZI0USiQ8-28">
          <mxGeometry width="225" height="75" as="geometry" />
        </mxCell>
        <mxCell id="tsniwYxbKprWZI0USiQ8-31" value="" style="group" vertex="1" connectable="0" parent="1">
          <mxGeometry y="500" width="225" height="75" as="geometry" />
        </mxCell>
        <mxCell id="tsniwYxbKprWZI0USiQ8-32" value="" style="rounded=1;whiteSpace=wrap;html=1;" vertex="1" parent="tsniwYxbKprWZI0USiQ8-31">
          <mxGeometry width="225" height="75" as="geometry" />
        </mxCell>
        <mxCell id="tsniwYxbKprWZI0USiQ8-33" value="&lt;font style=&quot;font-size: 24px;&quot;&gt;Clear the Tiva &amp;amp; ALICE LEDs&lt;/font&gt;" style="text;html=1;align=center;verticalAlign=middle;whiteSpace=wrap;rounded=0;fillColor=#ffe6cc;strokeColor=#d79b00;" vertex="1" parent="tsniwYxbKprWZI0USiQ8-31">
          <mxGeometry width="225" height="75" as="geometry" />
        </mxCell>
        <mxCell id="tsniwYxbKprWZI0USiQ8-34" value="" style="group" vertex="1" connectable="0" parent="1">
          <mxGeometry x="266" y="727.5" width="225" height="100" as="geometry" />
        </mxCell>
        <mxCell id="tsniwYxbKprWZI0USiQ8-35" value="" style="rounded=1;whiteSpace=wrap;html=1;" vertex="1" parent="tsniwYxbKprWZI0USiQ8-34">
          <mxGeometry width="225" height="100" as="geometry" />
        </mxCell>
        <mxCell id="tsniwYxbKprWZI0USiQ8-36" value="&lt;font style=&quot;font-size: 24px;&quot;&gt;Reset PlayClock timer, general game info, p1 and p2 info&lt;/font&gt;" style="text;html=1;align=center;verticalAlign=middle;whiteSpace=wrap;rounded=0;fillColor=#ffe6cc;strokeColor=#d79b00;" vertex="1" parent="tsniwYxbKprWZI0USiQ8-34">
          <mxGeometry width="225" height="100" as="geometry" />
        </mxCell>
        <mxCell id="tsniwYxbKprWZI0USiQ8-43" value="" style="group" vertex="1" connectable="0" parent="1">
          <mxGeometry x="795" y="715" width="225" height="125" as="geometry" />
        </mxCell>
        <mxCell id="tsniwYxbKprWZI0USiQ8-44" value="" style="rounded=1;whiteSpace=wrap;html=1;" vertex="1" parent="tsniwYxbKprWZI0USiQ8-43">
          <mxGeometry width="225" height="125" as="geometry" />
        </mxCell>
        <mxCell id="tsniwYxbKprWZI0USiQ8-45" value="&lt;font style=&quot;font-size: 24px;&quot;&gt;Set random, unique integers (1-7) to select colors&amp;nbsp; for the paddles &amp;amp; ball&lt;/font&gt;" style="text;html=1;align=center;verticalAlign=middle;whiteSpace=wrap;rounded=0;fillColor=#ffe6cc;strokeColor=#d79b00;" vertex="1" parent="tsniwYxbKprWZI0USiQ8-43">
          <mxGeometry width="225" height="125" as="geometry" />
        </mxCell>
        <mxCell id="tsniwYxbKprWZI0USiQ8-46" value="" style="group" vertex="1" connectable="0" parent="1">
          <mxGeometry x="795" y="550" width="225" height="125" as="geometry" />
        </mxCell>
        <mxCell id="tsniwYxbKprWZI0USiQ8-47" value="" style="rounded=1;whiteSpace=wrap;html=1;" vertex="1" parent="tsniwYxbKprWZI0USiQ8-46">
          <mxGeometry width="225" height="125" as="geometry" />
        </mxCell>
        <mxCell id="tsniwYxbKprWZI0USiQ8-48" value="&lt;font style=&quot;font-size: 24px;&quot;&gt;Set random integers for the ball&#39;s starting X (20-60) and Y (5-20) positions&lt;/font&gt;" style="text;html=1;align=center;verticalAlign=middle;whiteSpace=wrap;rounded=0;fillColor=#ffe6cc;strokeColor=#d79b00;" vertex="1" parent="tsniwYxbKprWZI0USiQ8-46">
          <mxGeometry width="225" height="125" as="geometry" />
        </mxCell>
        <mxCell id="tsniwYxbKprWZI0USiQ8-49" value="" style="group" vertex="1" connectable="0" parent="1">
          <mxGeometry x="270" y="480" width="250" height="75" as="geometry" />
        </mxCell>
        <mxCell id="tsniwYxbKprWZI0USiQ8-50" value="" style="rounded=1;whiteSpace=wrap;html=1;" vertex="1" parent="tsniwYxbKprWZI0USiQ8-49">
          <mxGeometry width="250" height="75" as="geometry" />
        </mxCell>
        <mxCell id="tsniwYxbKprWZI0USiQ8-51" value="&lt;font style=&quot;font-size: 24px;&quot;&gt;Set starting positions for the paddles (10)&lt;/font&gt;" style="text;html=1;align=center;verticalAlign=middle;whiteSpace=wrap;rounded=0;fillColor=#ffe6cc;strokeColor=#d79b00;" vertex="1" parent="tsniwYxbKprWZI0USiQ8-49">
          <mxGeometry width="250" height="75" as="geometry" />
        </mxCell>
        <mxCell id="tsniwYxbKprWZI0USiQ8-52" value="" style="group" vertex="1" connectable="0" parent="1">
          <mxGeometry x="442.5" y="575" width="275" height="75" as="geometry" />
        </mxCell>
        <mxCell id="tsniwYxbKprWZI0USiQ8-53" value="" style="rounded=1;whiteSpace=wrap;html=1;" vertex="1" parent="tsniwYxbKprWZI0USiQ8-52">
          <mxGeometry width="275" height="75" as="geometry" />
        </mxCell>
        <mxCell id="tsniwYxbKprWZI0USiQ8-54" value="&lt;font style=&quot;font-size: 24px;&quot;&gt;Set ball direction (right/000/p1 serves p2)&lt;/font&gt;" style="text;html=1;align=center;verticalAlign=middle;whiteSpace=wrap;rounded=0;fillColor=#ffe6cc;strokeColor=#d79b00;" vertex="1" parent="tsniwYxbKprWZI0USiQ8-52">
          <mxGeometry width="275" height="75" as="geometry" />
        </mxCell>
        <mxCell id="tsniwYxbKprWZI0USiQ8-55" value="" style="group" vertex="1" connectable="0" parent="1">
          <mxGeometry x="550" y="480" width="225" height="75" as="geometry" />
        </mxCell>
        <mxCell id="tsniwYxbKprWZI0USiQ8-56" value="" style="rounded=1;whiteSpace=wrap;html=1;" vertex="1" parent="tsniwYxbKprWZI0USiQ8-55">
          <mxGeometry width="225" height="75" as="geometry" />
        </mxCell>
        <mxCell id="tsniwYxbKprWZI0USiQ8-57" value="&lt;font style=&quot;font-size: 24px;&quot;&gt;Save new general, p1, p2, timer info&lt;/font&gt;" style="text;html=1;align=center;verticalAlign=middle;whiteSpace=wrap;rounded=0;fillColor=#ffe6cc;strokeColor=#d79b00;" vertex="1" parent="tsniwYxbKprWZI0USiQ8-55">
          <mxGeometry width="225" height="75" as="geometry" />
        </mxCell>
        <mxCell id="tsniwYxbKprWZI0USiQ8-61" value="" style="group" vertex="1" connectable="0" parent="1">
          <mxGeometry x="550" y="375" width="225" height="75" as="geometry" />
        </mxCell>
        <mxCell id="tsniwYxbKprWZI0USiQ8-62" value="" style="rounded=1;whiteSpace=wrap;html=1;" vertex="1" parent="tsniwYxbKprWZI0USiQ8-61">
          <mxGeometry width="225" height="75" as="geometry" />
        </mxCell>
        <mxCell id="tsniwYxbKprWZI0USiQ8-63" value="&lt;span style=&quot;font-size: 24px;&quot;&gt;Reset game speed to 30 FPS&lt;/span&gt;" style="text;html=1;align=center;verticalAlign=middle;whiteSpace=wrap;rounded=0;fillColor=#e1d5e7;strokeColor=#9673a6;" vertex="1" parent="tsniwYxbKprWZI0USiQ8-61">
          <mxGeometry width="225" height="75" as="geometry" />
        </mxCell>
        <mxCell id="tsniwYxbKprWZI0USiQ8-64" value="" style="group" vertex="1" connectable="0" parent="1">
          <mxGeometry x="525" y="210" width="275" height="125" as="geometry" />
        </mxCell>
        <mxCell id="tsniwYxbKprWZI0USiQ8-65" value="" style="rounded=1;whiteSpace=wrap;html=1;" vertex="1" parent="tsniwYxbKprWZI0USiQ8-64">
          <mxGeometry width="275" height="125" as="geometry" />
        </mxCell>
        <mxCell id="tsniwYxbKprWZI0USiQ8-66" value="&lt;font style=&quot;font-size: 24px;&quot;&gt;Disable GameTic timer, set new interrupt interval of ~16MHz/30; re-enable GameTic Timer&lt;/font&gt;" style="text;html=1;align=center;verticalAlign=middle;whiteSpace=wrap;rounded=0;fillColor=#e1d5e7;strokeColor=#9673a6;" vertex="1" parent="tsniwYxbKprWZI0USiQ8-64">
          <mxGeometry width="275" height="125" as="geometry" />
        </mxCell>
        <mxCell id="tsniwYxbKprWZI0USiQ8-67" style="edgeStyle=orthogonalEdgeStyle;rounded=0;orthogonalLoop=1;jettySize=auto;html=1;exitX=1;exitY=0.5;exitDx=0;exitDy=0;entryX=0.5;entryY=1;entryDx=0;entryDy=0;" edge="1" parent="1" source="tsniwYxbKprWZI0USiQ8-12" target="tsniwYxbKprWZI0USiQ8-17">
          <mxGeometry relative="1" as="geometry" />
        </mxCell>
        <mxCell id="tsniwYxbKprWZI0USiQ8-68" style="edgeStyle=orthogonalEdgeStyle;rounded=0;orthogonalLoop=1;jettySize=auto;html=1;exitX=0.5;exitY=1;exitDx=0;exitDy=0;entryX=0.5;entryY=0;entryDx=0;entryDy=0;" edge="1" parent="1" source="tsniwYxbKprWZI0USiQ8-2" target="tsniwYxbKprWZI0USiQ8-7">
          <mxGeometry relative="1" as="geometry" />
        </mxCell>
        <mxCell id="tsniwYxbKprWZI0USiQ8-71" value="" style="group" vertex="1" connectable="0" parent="1">
          <mxGeometry x="241" y="300" width="250" height="75" as="geometry" />
        </mxCell>
        <mxCell id="tsniwYxbKprWZI0USiQ8-72" value="" style="rounded=1;whiteSpace=wrap;html=1;" vertex="1" parent="tsniwYxbKprWZI0USiQ8-71">
          <mxGeometry width="250" height="75" as="geometry" />
        </mxCell>
        <mxCell id="tsniwYxbKprWZI0USiQ8-73" value="&lt;span style=&quot;font-size: 24px;&quot;&gt;Retrieve info: which button was pressed?&lt;/span&gt;" style="text;html=1;align=center;verticalAlign=middle;whiteSpace=wrap;rounded=0;fillColor=#fff2cc;strokeColor=#d6b656;" vertex="1" parent="tsniwYxbKprWZI0USiQ8-71">
          <mxGeometry width="250" height="75" as="geometry" />
        </mxCell>
        <mxCell id="tsniwYxbKprWZI0USiQ8-74" value="" style="group" vertex="1" connectable="0" parent="1">
          <mxGeometry x="530" y="727.5" width="225" height="100" as="geometry" />
        </mxCell>
        <mxCell id="tsniwYxbKprWZI0USiQ8-75" value="" style="rounded=1;whiteSpace=wrap;html=1;" vertex="1" parent="tsniwYxbKprWZI0USiQ8-74">
          <mxGeometry width="225" height="100" as="geometry" />
        </mxCell>
        <mxCell id="tsniwYxbKprWZI0USiQ8-76" value="&lt;span style=&quot;font-size: 24px;&quot;&gt;Set point threshold based on what button was pressed&lt;/span&gt;" style="text;html=1;align=center;verticalAlign=middle;whiteSpace=wrap;rounded=0;fillColor=#fff2cc;strokeColor=#d6b656;" vertex="1" parent="tsniwYxbKprWZI0USiQ8-74">
          <mxGeometry width="225" height="100" as="geometry" />
        </mxCell>
        <mxCell id="tsniwYxbKprWZI0USiQ8-77" style="edgeStyle=orthogonalEdgeStyle;rounded=0;orthogonalLoop=1;jettySize=auto;html=1;exitX=0.5;exitY=1;exitDx=0;exitDy=0;entryX=0.5;entryY=0;entryDx=0;entryDy=0;" edge="1" parent="1" source="tsniwYxbKprWZI0USiQ8-12" target="tsniwYxbKprWZI0USiQ8-73">
          <mxGeometry relative="1" as="geometry" />
        </mxCell>
        <mxCell id="tsniwYxbKprWZI0USiQ8-79" style="edgeStyle=orthogonalEdgeStyle;rounded=0;orthogonalLoop=1;jettySize=auto;html=1;exitX=0.5;exitY=1;exitDx=0;exitDy=0;entryX=0.5;entryY=0;entryDx=0;entryDy=0;" edge="1" parent="1" source="tsniwYxbKprWZI0USiQ8-24" target="tsniwYxbKprWZI0USiQ8-33">
          <mxGeometry relative="1" as="geometry" />
        </mxCell>
        <mxCell id="tsniwYxbKprWZI0USiQ8-80" style="edgeStyle=orthogonalEdgeStyle;rounded=0;orthogonalLoop=1;jettySize=auto;html=1;exitX=0.5;exitY=1;exitDx=0;exitDy=0;entryX=0.5;entryY=0;entryDx=0;entryDy=0;" edge="1" parent="1" source="tsniwYxbKprWZI0USiQ8-33" target="tsniwYxbKprWZI0USiQ8-27">
          <mxGeometry relative="1" as="geometry" />
        </mxCell>
        <mxCell id="tsniwYxbKprWZI0USiQ8-81" style="edgeStyle=orthogonalEdgeStyle;rounded=0;orthogonalLoop=1;jettySize=auto;html=1;exitX=0.5;exitY=1;exitDx=0;exitDy=0;entryX=0.5;entryY=0;entryDx=0;entryDy=0;" edge="1" parent="1" source="tsniwYxbKprWZI0USiQ8-27" target="tsniwYxbKprWZI0USiQ8-30">
          <mxGeometry relative="1" as="geometry" />
        </mxCell>
        <mxCell id="tsniwYxbKprWZI0USiQ8-82" style="edgeStyle=orthogonalEdgeStyle;rounded=0;orthogonalLoop=1;jettySize=auto;html=1;exitX=1;exitY=0.5;exitDx=0;exitDy=0;entryX=0;entryY=0.5;entryDx=0;entryDy=0;" edge="1" parent="1" source="tsniwYxbKprWZI0USiQ8-30" target="tsniwYxbKprWZI0USiQ8-36">
          <mxGeometry relative="1" as="geometry" />
        </mxCell>
        <mxCell id="tsniwYxbKprWZI0USiQ8-83" style="edgeStyle=orthogonalEdgeStyle;rounded=0;orthogonalLoop=1;jettySize=auto;html=1;exitX=1;exitY=0.5;exitDx=0;exitDy=0;entryX=0;entryY=0.5;entryDx=0;entryDy=0;" edge="1" parent="1" source="tsniwYxbKprWZI0USiQ8-36" target="tsniwYxbKprWZI0USiQ8-76">
          <mxGeometry relative="1" as="geometry" />
        </mxCell>
        <mxCell id="tsniwYxbKprWZI0USiQ8-85" style="edgeStyle=orthogonalEdgeStyle;rounded=0;orthogonalLoop=1;jettySize=auto;html=1;exitX=1;exitY=0.5;exitDx=0;exitDy=0;entryX=0;entryY=0.5;entryDx=0;entryDy=0;" edge="1" parent="1" source="tsniwYxbKprWZI0USiQ8-7" target="tsniwYxbKprWZI0USiQ8-12">
          <mxGeometry relative="1" as="geometry" />
        </mxCell>
        <mxCell id="tsniwYxbKprWZI0USiQ8-86" style="edgeStyle=orthogonalEdgeStyle;rounded=0;orthogonalLoop=1;jettySize=auto;html=1;exitX=0.5;exitY=1;exitDx=0;exitDy=0;entryX=1;entryY=0.5;entryDx=0;entryDy=0;" edge="1" parent="1" source="tsniwYxbKprWZI0USiQ8-73" target="tsniwYxbKprWZI0USiQ8-24">
          <mxGeometry relative="1" as="geometry" />
        </mxCell>
        <mxCell id="tsniwYxbKprWZI0USiQ8-87" style="edgeStyle=orthogonalEdgeStyle;rounded=0;orthogonalLoop=1;jettySize=auto;html=1;exitX=1;exitY=0.5;exitDx=0;exitDy=0;entryX=0;entryY=0.5;entryDx=0;entryDy=0;" edge="1" parent="1" source="tsniwYxbKprWZI0USiQ8-76" target="tsniwYxbKprWZI0USiQ8-45">
          <mxGeometry relative="1" as="geometry" />
        </mxCell>
        <mxCell id="tsniwYxbKprWZI0USiQ8-88" style="edgeStyle=orthogonalEdgeStyle;rounded=0;orthogonalLoop=1;jettySize=auto;html=1;exitX=0.5;exitY=0;exitDx=0;exitDy=0;entryX=0.5;entryY=1;entryDx=0;entryDy=0;" edge="1" parent="1" source="tsniwYxbKprWZI0USiQ8-45" target="tsniwYxbKprWZI0USiQ8-48">
          <mxGeometry relative="1" as="geometry" />
        </mxCell>
        <mxCell id="tsniwYxbKprWZI0USiQ8-90" style="edgeStyle=orthogonalEdgeStyle;rounded=0;orthogonalLoop=1;jettySize=auto;html=1;exitX=0;exitY=0.5;exitDx=0;exitDy=0;entryX=0.5;entryY=1;entryDx=0;entryDy=0;" edge="1" parent="1" source="tsniwYxbKprWZI0USiQ8-54" target="tsniwYxbKprWZI0USiQ8-51">
          <mxGeometry relative="1" as="geometry" />
        </mxCell>
        <mxCell id="tsniwYxbKprWZI0USiQ8-91" style="edgeStyle=orthogonalEdgeStyle;rounded=0;orthogonalLoop=1;jettySize=auto;html=1;exitX=0.5;exitY=0;exitDx=0;exitDy=0;entryX=0.5;entryY=1;entryDx=0;entryDy=0;" edge="1" parent="1" source="tsniwYxbKprWZI0USiQ8-66" target="tsniwYxbKprWZI0USiQ8-17">
          <mxGeometry relative="1" as="geometry" />
        </mxCell>
        <mxCell id="tsniwYxbKprWZI0USiQ8-92" style="edgeStyle=orthogonalEdgeStyle;rounded=0;orthogonalLoop=1;jettySize=auto;html=1;exitX=0.5;exitY=0;exitDx=0;exitDy=0;entryX=0.5;entryY=1;entryDx=0;entryDy=0;" edge="1" parent="1" source="tsniwYxbKprWZI0USiQ8-63" target="tsniwYxbKprWZI0USiQ8-66">
          <mxGeometry relative="1" as="geometry" />
        </mxCell>
        <mxCell id="tsniwYxbKprWZI0USiQ8-93" style="edgeStyle=orthogonalEdgeStyle;rounded=0;orthogonalLoop=1;jettySize=auto;html=1;exitX=0.5;exitY=0;exitDx=0;exitDy=0;" edge="1" parent="1" source="tsniwYxbKprWZI0USiQ8-57" target="tsniwYxbKprWZI0USiQ8-63">
          <mxGeometry relative="1" as="geometry" />
        </mxCell>
        <mxCell id="tsniwYxbKprWZI0USiQ8-94" style="edgeStyle=orthogonalEdgeStyle;rounded=0;orthogonalLoop=1;jettySize=auto;html=1;exitX=1;exitY=0.5;exitDx=0;exitDy=0;" edge="1" parent="1" source="tsniwYxbKprWZI0USiQ8-51" target="tsniwYxbKprWZI0USiQ8-57">
          <mxGeometry relative="1" as="geometry" />
        </mxCell>
        <mxCell id="tsniwYxbKprWZI0USiQ8-96" style="edgeStyle=orthogonalEdgeStyle;rounded=0;orthogonalLoop=1;jettySize=auto;html=1;exitX=0;exitY=0.5;exitDx=0;exitDy=0;entryX=1;entryY=0.5;entryDx=0;entryDy=0;" edge="1" parent="1" source="tsniwYxbKprWZI0USiQ8-48" target="tsniwYxbKprWZI0USiQ8-54">
          <mxGeometry relative="1" as="geometry" />
        </mxCell>
      </root>
    </mxGraphModel>
  </diagram>
</mxfile>
